<svg width="42" height="42" viewBox="0 0 42 42" fill="none" xmlns="http://www.w3.org/2000/svg">
<g clip-path="url(#clip0_4025_41)">
<mask id="path-1-inside-1_4025_41" fill="white">
<path d="M4.92639 8.1416H38.3086C40.344 8.1416 42 6.48564 42 4.4502V0.615234H39.5391V4.4502C39.5391 5.12868 38.9871 5.68066 38.3086 5.68066H4.92639C2.20992 5.68066 0 7.89067 0 10.607C0 13.3235 2.20992 15.5335 4.92639 15.5335H18.5391C19.2175 15.5335 19.7695 16.0855 19.7695 16.764V21.6974H0V41.3848H42V21.6973H22.2305V16.7639C22.2305 14.7285 20.5745 13.0725 18.5391 13.0725H4.92639C3.56696 13.0726 2.46094 11.9665 2.46094 10.607C2.46094 9.24763 3.56696 8.1416 4.92639 8.1416ZM19.7695 25.3887H22.2305V27.8496H19.7695V25.3887ZM19.7695 30.3105H22.2305V32.7715H19.7695V30.3105ZM14.8271 25.3887H17.2881V27.8496H14.8271V25.3887ZM14.8271 30.3105H17.2881V32.7715H14.8271V30.3105ZM12.3457 27.8496H9.88477V25.3887H12.3457M9.88477 30.3105H12.3457V32.7715H9.88477V30.3105ZM7.40332 37.6934H4.94238V35.2324H7.40332V37.6934ZM7.40332 32.7715H4.94238V30.3105H7.40332V32.7715ZM7.40332 27.8496H4.94238V25.3887H7.40332V27.8496ZM32.1152 37.6934H9.88477V35.2324H32.1152V37.6934ZM34.5967 25.3887H37.0576V27.8496H34.5967V25.3887ZM34.5967 30.3105H37.0576V32.7715H34.5967V30.3105ZM34.5967 35.2324H37.0576V37.6934H34.5967V35.2324ZM29.6543 25.3887H32.1152V27.8496H29.6543V25.3887ZM29.6543 30.3105H32.1152V32.7715H29.6543V30.3105ZM24.7119 25.3887H27.1729V27.8496H24.7119V25.3887ZM24.7119 30.3105H27.1729V32.7715H24.7119V30.3105Z"/>
</mask>
<path d="M4.92639 8.1416H38.3086C40.344 8.1416 42 6.48564 42 4.4502V0.615234H39.5391V4.4502C39.5391 5.12868 38.9871 5.68066 38.3086 5.68066H4.92639C2.20992 5.68066 0 7.89067 0 10.607C0 13.3235 2.20992 15.5335 4.92639 15.5335H18.5391C19.2175 15.5335 19.7695 16.0855 19.7695 16.764V21.6974H0V41.3848H42V21.6973H22.2305V16.7639C22.2305 14.7285 20.5745 13.0725 18.5391 13.0725H4.92639C3.56696 13.0726 2.46094 11.9665 2.46094 10.607C2.46094 9.24763 3.56696 8.1416 4.92639 8.1416ZM19.7695 25.3887H22.2305V27.8496H19.7695V25.3887ZM19.7695 30.3105H22.2305V32.7715H19.7695V30.3105ZM14.8271 25.3887H17.2881V27.8496H14.8271V25.3887ZM14.8271 30.3105H17.2881V32.7715H14.8271V30.3105ZM12.3457 27.8496H9.88477V25.3887H12.3457M9.88477 30.3105H12.3457V32.7715H9.88477V30.3105ZM7.40332 37.6934H4.94238V35.2324H7.40332V37.6934ZM7.40332 32.7715H4.94238V30.3105H7.40332V32.7715ZM7.40332 27.8496H4.94238V25.3887H7.40332V27.8496ZM32.1152 37.6934H9.88477V35.2324H32.1152V37.6934ZM34.5967 25.3887H37.0576V27.8496H34.5967V25.3887ZM34.5967 30.3105H37.0576V32.7715H34.5967V30.3105ZM34.5967 35.2324H37.0576V37.6934H34.5967V35.2324ZM29.6543 25.3887H32.1152V27.8496H29.6543V25.3887ZM29.6543 30.3105H32.1152V32.7715H29.6543V30.3105ZM24.7119 25.3887H27.1729V27.8496H24.7119V25.3887ZM24.7119 30.3105H27.1729V32.7715H24.7119V30.3105Z" fill="#646464"/>
<path d="M42 0.615234H43V-0.384766H42V0.615234ZM39.5391 0.615234V-0.384766H38.5391V0.615234H39.5391ZM19.7695 21.6974V22.6974H20.7695V21.6974H19.7695ZM0 21.6974V20.6974H-1V21.6974H0ZM0 41.3848H-1V42.3848H0V41.3848ZM42 41.3848V42.3848H43V41.3848H42ZM42 21.6973H43V20.6973H42V21.6973ZM22.2305 21.6973H21.2305V22.6973H22.2305V21.6973ZM4.92639 13.0725V12.0725H4.92633L4.92639 13.0725ZM19.7695 25.3887V24.3887H18.7695V25.3887H19.7695ZM22.2305 25.3887H23.2305V24.3887H22.2305V25.3887ZM22.2305 27.8496V28.8496H23.2305V27.8496H22.2305ZM19.7695 27.8496H18.7695V28.8496H19.7695V27.8496ZM19.7695 30.3105V29.3105H18.7695V30.3105H19.7695ZM22.2305 30.3105H23.2305V29.3105H22.2305V30.3105ZM22.2305 32.7715V33.7715H23.2305V32.7715H22.2305ZM19.7695 32.7715H18.7695V33.7715H19.7695V32.7715ZM14.8271 25.3887V24.3887H13.8271V25.3887H14.8271ZM17.2881 25.3887H18.2881V24.3887H17.2881V25.3887ZM17.2881 27.8496V28.8496H18.2881V27.8496H17.2881ZM14.8271 27.8496H13.8271V28.8496H14.8271V27.8496ZM14.8271 30.3105V29.3105H13.8271V30.3105H14.8271ZM17.2881 30.3105H18.2881V29.3105H17.2881V30.3105ZM17.2881 32.7715V33.7715H18.2881V32.7715H17.2881ZM14.8271 32.7715H13.8271V33.7715H14.8271V32.7715ZM9.88477 27.8496H8.88477V28.8496H9.88477V27.8496ZM9.88477 25.3887V24.3887H8.88477V25.3887H9.88477ZM9.88477 30.3105V29.3105H8.88477V30.3105H9.88477ZM12.3457 30.3105H13.3457V29.3105H12.3457V30.3105ZM12.3457 32.7715V33.7715H13.3457V32.7715H12.3457ZM9.88477 32.7715H8.88477V33.7715H9.88477V32.7715ZM7.40332 37.6934V38.6934H8.40332V37.6934H7.40332ZM4.94238 37.6934H3.94238V38.6934H4.94238V37.6934ZM4.94238 35.2324V34.2324H3.94238V35.2324H4.94238ZM7.40332 35.2324H8.40332V34.2324H7.40332V35.2324ZM7.40332 32.7715V33.7715H8.40332V32.7715H7.40332ZM4.94238 32.7715H3.94238V33.7715H4.94238V32.7715ZM4.94238 30.3105V29.3105H3.94238V30.3105H4.94238ZM7.40332 30.3105H8.40332V29.3105H7.40332V30.3105ZM7.40332 27.8496V28.8496H8.40332V27.8496H7.40332ZM4.94238 27.8496H3.94238V28.8496H4.94238V27.8496ZM4.94238 25.3887V24.3887H3.94238V25.3887H4.94238ZM7.40332 25.3887H8.40332V24.3887H7.40332V25.3887ZM32.1152 37.6934V38.6934H33.1152V37.6934H32.1152ZM9.88477 37.6934H8.88477V38.6934H9.88477V37.6934ZM9.88477 35.2324V34.2324H8.88477V35.2324H9.88477ZM32.1152 35.2324H33.1152V34.2324H32.1152V35.2324ZM34.5967 25.3887V24.3887H33.5967V25.3887H34.5967ZM37.0576 25.3887H38.0576V24.3887H37.0576V25.3887ZM37.0576 27.8496V28.8496H38.0576V27.8496H37.0576ZM34.5967 27.8496H33.5967V28.8496H34.5967V27.8496ZM34.5967 30.3105V29.3105H33.5967V30.3105H34.5967ZM37.0576 30.3105H38.0576V29.3105H37.0576V30.3105ZM37.0576 32.7715V33.7715H38.0576V32.7715H37.0576ZM34.5967 32.7715H33.5967V33.7715H34.5967V32.7715ZM34.5967 35.2324V34.2324H33.5967V35.2324H34.5967ZM37.0576 35.2324H38.0576V34.2324H37.0576V35.2324ZM37.0576 37.6934V38.6934H38.0576V37.6934H37.0576ZM34.5967 37.6934H33.5967V38.6934H34.5967V37.6934ZM29.6543 25.3887V24.3887H28.6543V25.3887H29.6543ZM32.1152 25.3887H33.1152V24.3887H32.1152V25.3887ZM32.1152 27.8496V28.8496H33.1152V27.8496H32.1152ZM29.6543 27.8496H28.6543V28.8496H29.6543V27.8496ZM29.6543 30.3105V29.3105H28.6543V30.3105H29.6543ZM32.1152 30.3105H33.1152V29.3105H32.1152V30.3105ZM32.1152 32.7715V33.7715H33.1152V32.7715H32.1152ZM29.6543 32.7715H28.6543V33.7715H29.6543V32.7715ZM24.7119 25.3887V24.3887H23.7119V25.3887H24.7119ZM27.1729 25.3887H28.1729V24.3887H27.1729V25.3887ZM27.1729 27.8496V28.8496H28.1729V27.8496H27.1729ZM24.7119 27.8496H23.7119V28.8496H24.7119V27.8496ZM24.7119 30.3105V29.3105H23.7119V30.3105H24.7119ZM27.1729 30.3105H28.1729V29.3105H27.1729V30.3105ZM27.1729 32.7715V33.7715H28.1729V32.7715H27.1729ZM24.7119 32.7715H23.7119V33.7715H24.7119V32.7715ZM4.92639 9.1416H38.3086V7.1416H4.92639V9.1416ZM38.3086 9.1416C40.8963 9.1416 43 7.03792 43 4.4502H41C41 5.93335 39.7918 7.1416 38.3086 7.1416V9.1416ZM43 4.4502V0.615234H41V4.4502H43ZM42 -0.384766H39.5391V1.61523H42V-0.384766ZM38.5391 0.615234V4.4502H40.5391V0.615234H38.5391ZM38.5391 4.4502C38.5391 4.57639 38.4348 4.68066 38.3086 4.68066V6.68066C39.5394 6.68066 40.5391 5.68096 40.5391 4.4502H38.5391ZM38.3086 4.68066H4.92639V6.68066H38.3086V4.68066ZM4.92639 4.68066C1.65763 4.68066 -1 7.33839 -1 10.607H1C1 8.44294 2.76222 6.68066 4.92639 6.68066V4.68066ZM-1 10.607C-1 13.8758 1.65762 16.5335 4.92639 16.5335V14.5335C2.76223 14.5335 1 12.7713 1 10.607H-1ZM4.92639 16.5335H18.5391V14.5335H4.92639V16.5335ZM18.5391 16.5335C18.6653 16.5335 18.7695 16.6378 18.7695 16.764H20.7695C20.7695 15.5332 19.7698 14.5335 18.5391 14.5335V16.5335ZM18.7695 16.764V21.6974H20.7695V16.764H18.7695ZM19.7695 20.6974H0V22.6974H19.7695V20.6974ZM-1 21.6974V41.3848H1V21.6974H-1ZM0 42.3848H42V40.3848H0V42.3848ZM43 41.3848V21.6973H41V41.3848H43ZM42 20.6973H22.2305V22.6973H42V20.6973ZM23.2305 21.6973V16.7639H21.2305V21.6973H23.2305ZM23.2305 16.7639C23.2305 14.1762 21.1268 12.0725 18.5391 12.0725V14.0725C20.0222 14.0725 21.2305 15.2807 21.2305 16.7639H23.2305ZM18.5391 12.0725H4.92639V14.0725H18.5391V12.0725ZM4.92633 12.0725C4.11929 12.0725 3.46094 11.4142 3.46094 10.607H1.46094C1.46094 12.5187 3.01464 14.0726 4.92645 14.0725L4.92633 12.0725ZM3.46094 10.607C3.46094 9.79991 4.11925 9.1416 4.92639 9.1416V7.1416C3.01468 7.1416 1.46094 8.69534 1.46094 10.607H3.46094ZM19.7695 26.3887H22.2305V24.3887H19.7695V26.3887ZM21.2305 25.3887V27.8496H23.2305V25.3887H21.2305ZM22.2305 26.8496H19.7695V28.8496H22.2305V26.8496ZM20.7695 27.8496V25.3887H18.7695V27.8496H20.7695ZM19.7695 31.3105H22.2305V29.3105H19.7695V31.3105ZM21.2305 30.3105V32.7715H23.2305V30.3105H21.2305ZM22.2305 31.7715H19.7695V33.7715H22.2305V31.7715ZM20.7695 32.7715V30.3105H18.7695V32.7715H20.7695ZM14.8271 26.3887H17.2881V24.3887H14.8271V26.3887ZM16.2881 25.3887V27.8496H18.2881V25.3887H16.2881ZM17.2881 26.8496H14.8271V28.8496H17.2881V26.8496ZM15.8271 27.8496V25.3887H13.8271V27.8496H15.8271ZM14.8271 31.3105H17.2881V29.3105H14.8271V31.3105ZM16.2881 30.3105V32.7715H18.2881V30.3105H16.2881ZM17.2881 31.7715H14.8271V33.7715H17.2881V31.7715ZM15.8271 32.7715V30.3105H13.8271V32.7715H15.8271ZM12.3457 26.8496H9.88477V28.8496H12.3457V26.8496ZM10.8848 27.8496V25.3887H8.88477V27.8496H10.8848ZM9.88477 26.3887H12.3457V24.3887H9.88477V26.3887ZM9.88477 31.3105H12.3457V29.3105H9.88477V31.3105ZM11.3457 30.3105V32.7715H13.3457V30.3105H11.3457ZM12.3457 31.7715H9.88477V33.7715H12.3457V31.7715ZM10.8848 32.7715V30.3105H8.88477V32.7715H10.8848ZM7.40332 36.6934H4.94238V38.6934H7.40332V36.6934ZM5.94238 37.6934V35.2324H3.94238V37.6934H5.94238ZM4.94238 36.2324H7.40332V34.2324H4.94238V36.2324ZM6.40332 35.2324V37.6934H8.40332V35.2324H6.40332ZM7.40332 31.7715H4.94238V33.7715H7.40332V31.7715ZM5.94238 32.7715V30.3105H3.94238V32.7715H5.94238ZM4.94238 31.3105H7.40332V29.3105H4.94238V31.3105ZM6.40332 30.3105V32.7715H8.40332V30.3105H6.40332ZM7.40332 26.8496H4.94238V28.8496H7.40332V26.8496ZM5.94238 27.8496V25.3887H3.94238V27.8496H5.94238ZM4.94238 26.3887H7.40332V24.3887H4.94238V26.3887ZM6.40332 25.3887V27.8496H8.40332V25.3887H6.40332ZM32.1152 36.6934H9.88477V38.6934H32.1152V36.6934ZM10.8848 37.6934V35.2324H8.88477V37.6934H10.8848ZM9.88477 36.2324H32.1152V34.2324H9.88477V36.2324ZM31.1152 35.2324V37.6934H33.1152V35.2324H31.1152ZM34.5967 26.3887H37.0576V24.3887H34.5967V26.3887ZM36.0576 25.3887V27.8496H38.0576V25.3887H36.0576ZM37.0576 26.8496H34.5967V28.8496H37.0576V26.8496ZM35.5967 27.8496V25.3887H33.5967V27.8496H35.5967ZM34.5967 31.3105H37.0576V29.3105H34.5967V31.3105ZM36.0576 30.3105V32.7715H38.0576V30.3105H36.0576ZM37.0576 31.7715H34.5967V33.7715H37.0576V31.7715ZM35.5967 32.7715V30.3105H33.5967V32.7715H35.5967ZM34.5967 36.2324H37.0576V34.2324H34.5967V36.2324ZM36.0576 35.2324V37.6934H38.0576V35.2324H36.0576ZM37.0576 36.6934H34.5967V38.6934H37.0576V36.6934ZM35.5967 37.6934V35.2324H33.5967V37.6934H35.5967ZM29.6543 26.3887H32.1152V24.3887H29.6543V26.3887ZM31.1152 25.3887V27.8496H33.1152V25.3887H31.1152ZM32.1152 26.8496H29.6543V28.8496H32.1152V26.8496ZM30.6543 27.8496V25.3887H28.6543V27.8496H30.6543ZM29.6543 31.3105H32.1152V29.3105H29.6543V31.3105ZM31.1152 30.3105V32.7715H33.1152V30.3105H31.1152ZM32.1152 31.7715H29.6543V33.7715H32.1152V31.7715ZM30.6543 32.7715V30.3105H28.6543V32.7715H30.6543ZM24.7119 26.3887H27.1729V24.3887H24.7119V26.3887ZM26.1729 25.3887V27.8496H28.1729V25.3887H26.1729ZM27.1729 26.8496H24.7119V28.8496H27.1729V26.8496ZM25.7119 27.8496V25.3887H23.7119V27.8496H25.7119ZM24.7119 31.3105H27.1729V29.3105H24.7119V31.3105ZM26.1729 30.3105V32.7715H28.1729V30.3105H26.1729ZM27.1729 31.7715H24.7119V33.7715H27.1729V31.7715ZM25.7119 32.7715V30.3105H23.7119V32.7715H25.7119Z" fill="#646464" mask="url(#path-1-inside-1_4025_41)"/>
</g>
<defs>
<clipPath id="clip0_4025_41">
<rect width="42" height="42" fill="white"/>
</clipPath>
</defs>
</svg>
