<svg width="42" height="42" viewBox="0 0 42 42" fill="none" xmlns="http://www.w3.org/2000/svg">
<path d="M37.9825 28.8746V28.875C37.9825 30.8249 36.5921 32.3125 35 32.3125V32.8125V33.3125H40.25C40.8826 33.3125 41.5 33.9176 41.5 34.7812C41.5 35.6449 40.8826 36.25 40.25 36.25H1.75C1.11738 36.25 0.5 35.6449 0.5 34.7812C0.5 33.9176 1.11738 33.3125 1.75 33.3125H7V32.8125V32.3125C5.40488 32.3125 4 30.8215 4 28.875V9.1875C4 7.24103 5.40488 5.75 7 5.75H35C36.595 5.75 37.9998 7.2408 38 9.18706C38 9.1872 38 9.18735 38 9.1875L37.9825 28.8746ZM33.25 8.6875H8.75C7.45762 8.6875 6.5 9.85429 6.5 11.1562V26.9062C6.5 28.2082 7.45762 29.375 8.75 29.375H33.25C34.5424 29.375 35.5 28.2082 35.5 26.9062V11.1562C35.5 9.85429 34.5424 8.6875 33.25 8.6875Z" fill="#646464" stroke="#646464"/>
</svg>
