<svg width="144" height="68" viewBox="0 0 144 68" fill="none" xmlns="http://www.w3.org/2000/svg">
<g filter="url(#filter0_d_4028_17489)">
<rect x="2" width="140" height="64" rx="4" fill="white"/>
<path d="M68.5125 31.1499L50.525 20.1499C50.3736 20.0565 50.2 20.0052 50.0221 20.0012C49.8442 19.9973 49.6685 20.0409 49.5131 20.1275C49.3577 20.2141 49.2283 20.3406 49.1381 20.494C49.0479 20.6473 49.0002 20.822 49 20.9999V42.9999C49.0002 43.1778 49.0479 43.3524 49.1381 43.5058C49.2283 43.6591 49.3577 43.7856 49.5131 43.8723C49.6685 43.9589 49.8442 44.0025 50.0221 43.9985C50.2 43.9946 50.3736 43.9433 50.525 43.8499L68.5125 32.8499C68.6602 32.7625 68.7826 32.6382 68.8676 32.4892C68.9526 32.3401 68.9974 32.1715 68.9974 31.9999C68.9974 31.8283 68.9526 31.6596 68.8676 31.5106C68.7826 31.3615 68.6602 31.2372 68.5125 31.1499V31.1499Z" stroke="#646464" stroke-width="3" stroke-linecap="round" stroke-linejoin="round"/>
<path d="M97 21H92.5C91.9477 21 91.5 21.4477 91.5 22V42C91.5 42.5523 91.9477 43 92.5 43H97C97.5523 43 98 42.5523 98 42V22C98 21.4477 97.5523 21 97 21Z" stroke="#646464" stroke-width="3" stroke-linecap="round" stroke-linejoin="round"/>
<path d="M83.5 21H79C78.4477 21 78 21.4477 78 22V42C78 42.5523 78.4477 43 79 43H83.5C84.0523 43 84.5 42.5523 84.5 42V22C84.5 21.4477 84.0523 21 83.5 21Z" stroke="#646464" stroke-width="3" stroke-linecap="round" stroke-linejoin="round"/>
</g>
<defs>
<filter id="filter0_d_4028_17489" x="0" y="0" width="144" height="68" filterUnits="userSpaceOnUse" color-interpolation-filters="sRGB">
<feFlood flood-opacity="0" result="BackgroundImageFix"/>
<feColorMatrix in="SourceAlpha" type="matrix" values="0 0 0 0 0 0 0 0 0 0 0 0 0 0 0 0 0 0 127 0" result="hardAlpha"/>
<feOffset dy="2"/>
<feGaussianBlur stdDeviation="1"/>
<feColorMatrix type="matrix" values="0 0 0 0 0 0 0 0 0 0 0 0 0 0 0 0 0 0 0.25 0"/>
<feBlend mode="normal" in2="BackgroundImageFix" result="effect1_dropShadow_4028_17489"/>
<feBlend mode="normal" in="SourceGraphic" in2="effect1_dropShadow_4028_17489" result="shape"/>
</filter>
</defs>
</svg>
