<svg width="656" height="377" viewBox="0 0 656 377" fill="none" xmlns="http://www.w3.org/2000/svg">
<path d="M655.997 333.048C656.552 332.002 569.01 231.454 569.01 231.454V245.869C569.01 249.301 569.721 257.914 565.115 265.776C557.6 278.604 547.35 284.991 526.439 284.991L453.459 284.997C453.459 284.997 452.093 320.67 435.283 344.204C421.073 364.098 392.233 375.608 392.233 375.608L432.481 376.294H502.591C502.591 376.294 527.137 376.528 542.839 375.608C569.217 374.062 577.417 373.328 586.981 371.489C643.954 360.536 655.443 334.094 655.997 333.048Z" fill="#DFDFDF"/>
<path d="M297.25 284.754H220.717V238.287H282.217H288.367C309.55 238.971 312.967 239.654 321.167 242.387C328 245.121 329.422 249.555 330.05 253.321C330.05 253.321 330.972 262.414 330.05 267.671C328.683 275.461 326.633 277.921 320.483 281.337C316.869 283.345 304.083 284.754 297.25 284.754Z" fill="#DFDFDF"/>
<path d="M334.15 133.054L332.783 139.887L302.717 138.521L266.5 137.154C266.5 137.154 226.867 136.47 223.45 135.787V92.0539H380.617V93.4205L371.733 94.7872C349.867 97.5203 345.995 102.987 343.717 105.721C341.439 108.454 339.835 112.653 338.25 116.654C337.651 118.166 337.383 119.069 336.934 120.581L336.883 120.754C336.257 122.864 336.005 124.075 335.517 126.221C334.913 128.874 334.684 130.385 334.15 133.054Z" fill="#DFDFDF"/>
<path d="M393.913 18.3875C405.485 25.3072 433.215 41.8881 431.184 85.8504H149.65C138.688 86.0984 123.683 85.8504 118.217 91.3171C112.067 98.1504 110.7 102.934 110.7 112.5C110.7 120.754 114.8 129.637 116.85 131.634C120.95 135.787 131.2 139.887 144.867 139.834L181.767 141.2L252.15 143.25L325.267 146.667C349.114 147.225 362.886 147.909 385.4 153.5C403.761 157.566 413.616 163.265 425.717 176.734C437.818 190.203 444.167 204.804 444.85 227.984L444.167 277.237C443.483 295.004 440.75 310.72 433.233 326.437C423.667 348.304 414.307 353.398 399.067 363.337C383.35 373.587 355.531 375.157 312.284 376.951H184.5C164.683 376.951 150.333 376.32 130.517 375.637L101.817 374.27C77.1941 373.05 64.2333 370.117 47.15 362.6C25.2833 353.034 18.3327 345.517 9.56683 329.801C2.71238 317.511 0.812353 309.135 0 292.217V249.85H107.284L107.967 268.3C108.65 275.134 110.7 278.55 116.85 284.017C125.733 290.167 131.635 291.754 143.5 292.217H252.15C288.344 293.071 314.333 291.64 321.85 288.854C328 286.173 336.2 281.967 337.567 271.034C338.933 260.1 337.567 252.584 337.567 252.584C336.367 242.919 334.15 239.6 323.217 235.5C309.55 231.4 300.741 231.922 284.267 231.4L162.633 227.984C130.268 227.112 91.5667 226.565 77.2168 223.201C58.8234 218.888 47.6297 214.295 32.8 205.434C19.044 193.839 15.6399 186.694 9.56683 170.584C2.95987 148.95 1.71304 136.166 2.73349 112.5C3.53181 85.3131 7.51667 60.6203 15.7168 45.5338C23.855 32.618 29.7326 26.6711 42.3668 18.2004C51.9333 12.1036 66.5315 7.76917 86.7835 5.21709C97.0333 3.92545 154.291 0.839681 199.533 0.433756C267.609 -0.512323 297.934 -0.0431052 337.567 3.16708C360.554 5.02895 374.158 6.56837 393.6 18.2004L393.913 18.3875Z" fill="#DFDFDF"/>
<path d="M569.217 134.421L569.223 134.414C569.243 134.315 569.218 133.065 567.167 118.704C566.483 113.92 565.8 111.187 563.067 107.034C560.333 102.88 556.272 99.2126 550.767 96.1538C544.617 92.737 534.367 92.0538 529.583 92.0538C524.8 92.0538 509.083 91.3171 494.733 91.3171H436.65C436.65 91.3171 439.383 90.0036 439.383 86.587V79.0171C439.383 40.0671 418.2 22.93 405.9 15.4671C392.725 7.47323 385.207 5.48997 371.733 3.16708C371.733 3.16708 405.294 1.52207 426.4 1.17031C467.4 0.486975 488.583 1.17031 529.583 2.53698C543.925 3.01504 610.217 9.37031 651.9 45.5338L569.223 134.414C569.22 134.427 569.217 134.421 569.217 134.421Z" fill="#DFDFDF"/>
</svg>
